<svg id="Layer_1" data-name="Layer 1" xmlns="http://www.w3.org/2000/svg" viewBox="0 0 345.17 99.26"><defs><style>.cls-1,.cls-4{fill:#00ace8;}.cls-1,.cls-2,.cls-3{stroke:#00ace8;stroke-miterlimit:10;}.cls-2{fill:none;}.cls-3{fill:#fff;}.cls-4,.cls-5{isolation:isolate;}.cls-4{font-size:26px;font-family:ComicSansMS-Bold, Comic Sans MS;font-weight:700;}.cls-5{font-size:12px;fill:#4caed8;font-family:ComicSansMS, Comic Sans MS;}</style></defs><path class="cls-1" d="M132.54,159c-2.2-1.2-12.1,8.3-16,21.1-.8,2.7-5,16,1.8,24.3.9,1.1,3.4,4.1,6.9,4.1,4.3,0,8.1-4.5,9.2-8.7,1.4-5.6-2.7-8.4-4.6-15.6C126.14,170.76,134.74,160.16,132.54,159Z" transform="translate(-114.03 -143.7)"/><path class="cls-1" d="M148.14,154.36c.3,4.2,6.8,7.2,10.5,8.2,5.7,1.6,7.7-.7,12.8.9,3.8,1.1,8.1,4,10.1,7.8,4.8,9.2-3.3,25.2-14.2,29.4-10.7,4-23.6-3.6-24.8-.9-.4.9.7,2.4,2.1,4.1a15,15,0,0,0,4.8,4.1,23.18,23.18,0,0,0,12.8,3.4c5.7-.2,7.5-2.6,10.1-1.1,2.2,1.2,1.9,3.3,4.1,7.1a26.57,26.57,0,0,0,7.3,7.6c7.2,5.2,12.9,3.5,14.1,6.9,1.3,3.7-5,7.5-3.8,9.5,1.5,2.4,13.6,1,15.9-5.6,2-5.8-4.8-12.4-8-14.7-4.4-3.2-6.3-2-10.3-4.8a19.69,19.69,0,0,1-8-16c.3-12.2,14-18.8,15.1-19.3,7.3-3.4,9.5-.2,15.4-3.7,9.8-5.8,12.5-18.6,14.7-17.9.3.1.6,1.4,1.3,3.9,1.2,4.9,1,5.7,2,6.7,1.6,1.7,3.2.5,5,2.3,2.2,2.1,1,4.6,2.8,5.7,2.4,1.5,6.6-2.1,7.5-1,.3.4-.2,1.3-.9,2.8-2.5,4.8-1.9,4.7-3.1,6.6s-4.3,6.9-9.6,7.9a13.18,13.18,0,0,1-8.7-1.4c-3.4-1.9-4-4.3-6.4-4.4-2.8,0-5,3.2-5.3,3.7-3.2,5,.5,9.7-2.3,12.6-1.4,1.4-4.1,1.4-9.6,1.4-6.8,0-10-1-10.3-.2-.4,1,4.9,4.5,10.8,7.1,5.7,2.5,17.5,7.6,32.1,4.1,4.6-1.1,12.7-3.1,19.5-10.5,1.4-1.6,7.2-7.9,8.2-16.7,2-17.4-15.5-35.6-32.1-38.8-6.7-1.3-16.9-.9-25.2.9-5.3,1.1-9.1,1.4-16.7,2.1-4.2.3-5.9.3-7.8-.5-4.4-1.8-4.7-5.4-9.4-7.8a15.09,15.09,0,0,0-8.2-1.6C155.54,144.76,147.74,149.56,148.14,154.36Z" transform="translate(-114.03 -143.7)"/><path class="cls-2" d="M147.44,179.16a5.44,5.44,0,0,0-6,1.6,5.37,5.37,0,0,0-.7,5.7" transform="translate(-114.03 -143.7)"/><path class="cls-2" d="M161.14,167.46a5.85,5.85,0,0,0-5.3,1.4,6.15,6.15,0,0,0-1.8,4.6" transform="translate(-114.03 -143.7)"/><path class="cls-1" d="M166.44,180.76a5.64,5.64,0,0,0-3.4,1.6c-2,2-2.3,6.2-.2,7.8,1.8,1.4,4.7.1,4.8,0,3.7-1.8,5.1-7.5,3.4-9.2C169.94,180,167.74,180.46,166.44,180.76Z" transform="translate(-114.03 -143.7)"/><path class="cls-3" d="M227.74,170.06" transform="translate(-114.03 -143.7)"/><path class="cls-2" d="M227.14,175.56a2.35,2.35,0,0,0,1.2,2.5,2.75,2.75,0,0,0,2.1,0" transform="translate(-114.03 -143.7)"/><path class="cls-2" d="M234.34,181.16a3.16,3.16,0,0,0,.8,2.1,3.44,3.44,0,0,0,1.9,1.1" transform="translate(-114.03 -143.7)"/><path class="cls-2" d="M225.14,182.36c-.1,1.5.3,2,.6,2.2.7.4,1.7-.4,2.1.1s-.1,1.1.3,1.6,1.3.5,2.1.5" transform="translate(-114.03 -143.7)"/><text class="cls-4" transform="translate(161.36 36.17)">Pampered Pets</text><text class="cls-5" transform="translate(162.17 59.73)">Caring for your purfect pets</text></svg>